<svg width="134" height="16" viewBox="0 0 134 16" fill="none" xmlns="http://www.w3.org/2000/svg">
<path fill-rule="evenodd" clip-rule="evenodd" d="M1 11.0328L2.33 10.205C3.66 9.37714 6.20917 7.72144 8.86917 8.27334C11.4183 8.82524 14.0783 11.5847 16.6275 12.4126C19.2875 13.2404 21.8367 12.1366 24.4967 11.5847C27.0458 11.0328 29.7058 11.0328 32.255 9.65309C34.915 8.27334 37.4642 5.51384 40.1242 5.23789C42.6733 4.96194 45.3333 7.16954 47.9933 7.99739C50.5425 8.82524 53.2025 8.27334 55.7517 7.72144C58.4117 7.16954 60.9608 6.61764 63.6208 7.44549C66.17 8.27334 68.83 10.4809 71.3792 10.7569C74.0392 11.0328 76.5883 9.37714 79.2483 7.72144C81.7975 6.06574 84.4575 4.41004 87.0067 3.58219C89.6667 2.75433 92.3267 2.75433 94.8758 3.30624C97.5358 3.85814 100.085 4.96194 102.745 6.89359C105.294 8.82524 107.954 5.66369 110.503 7.31939C113.163 8.9751 115.713 9.527 118.373 7.31939C120.922 5.11179 123.582 6.06574 126.131 3.58219C128.791 1.09863 131.34 1.09863 132.67 1.09863H134V16H132.67C131.34 16 128.791 16 126.131 16C123.582 16 120.922 16 118.373 16C115.713 16 113.163 16 110.503 16C107.954 16 105.294 16 102.745 16C100.085 16 97.5358 16 94.8758 16C92.3267 16 89.6667 16 87.0067 16C84.4575 16 81.7975 16 79.2483 16C76.5883 16 74.0392 16 71.3792 16C68.83 16 66.17 16 63.6208 16C60.9608 16 58.4117 16 55.7517 16C53.2025 16 50.5425 16 47.9933 16C45.3333 16 42.6733 16 40.1242 16C37.4642 16 34.915 16 32.255 16C29.7058 16 27.0458 16 24.4967 16C21.8367 16 19.2875 16 16.6275 16C14.0783 16 11.4183 16 8.86917 16C6.20917 16 3.66 16 2.33 16H1V11.0328Z" fill="#FFC043" fill-opacity="0.1"/>
<path d="M1 10.9625L2.33 10.1323C3.66 9.3021 6.20917 7.64168 8.86917 8.19516C11.4183 8.74863 14.0783 11.516 16.6275 12.3462C19.2875 13.1764 21.8367 12.0695 24.4967 11.516C27.0458 10.9625 29.7058 10.9625 32.255 9.57884C34.915 8.19516 37.4642 5.42779 40.1242 5.15105C42.6733 4.87432 45.3333 7.08821 47.9933 7.91842C50.5425 8.74863 53.2025 8.19516 55.7517 7.64168C58.4117 7.08821 60.9608 6.53474 63.6208 7.36495C66.17 8.19516 68.83 10.4091 71.3792 10.6858C74.0392 10.9625 76.5883 9.3021 79.2483 7.64168C81.7975 5.98126 84.4575 4.32084 87.0067 3.49063C89.6667 2.66042 92.3267 2.66042 94.8758 3.21389C97.5358 3.76737 100.085 4.87432 102.745 6.81147C105.294 8.74863 107.954 5.57807 110.503 7.23849C113.163 8.89891 115.712 9.45238 118.372 7.23849C120.922 5.0246 123.582 5.98126 126.131 3.49063C128.791 1 131.34 1 132.67 1H134" stroke="#FFC043"/>
</svg>
